<svg xmlns="http://www.w3.org/2000/svg" viewBox="0 0 24 24"><g id="Layer_2" data-name="Layer 2"><g id="Layer_1-2" data-name="Layer 1"><path d="M0,0V24H24V0ZM8.34,14a.73.73,0,0,1-.26,1.28,1,1,0,0,1-.74-.19c-.89-.84-1.75-1.72-2.61-2.59a.74.74,0,0,1,0-1.08c.86-.87,1.73-1.74,2.6-2.6a.73.73,0,0,1,1.07,0,.77.77,0,0,1,0,1.08c-.58.59-1.17,1.17-1.76,1.74a3,3,0,0,1-.34.26Zm5.56-6c-.88,3.07-1.75,6.13-2.63,9.19a1.09,1.09,0,0,1,0,.17.76.76,0,0,1-.9.55.72.72,0,0,1-.53-.9c.12-.55.29-1.08.45-1.62q1.24-4.38,2.5-8.75a1.11,1.11,0,0,1,.2-.44.68.68,0,0,1,.81-.22c.33.11.48.37.48.81S14,7.64,13.9,8.07Zm5.38,4.45c-.86.89-1.74,1.76-2.62,2.63a.74.74,0,0,1-1.05,0,.76.76,0,0,1,0-1.08c.58-.6,1.18-1.18,1.78-1.77a2.07,2.07,0,0,1,.35-.22L15.65,10a.75.75,0,0,1,.24-1.28.71.71,0,0,1,.76.17l2.63,2.63A.74.74,0,0,1,19.28,12.52Z"/></g></g></svg>