<svg xmlns="http://www.w3.org/2000/svg" viewBox="0 0 24 24">
    <g id="Layer_2" data-name="Layer 2">
        <g id="Layer_1-2" data-name="Layer 1">
            <path d="M12,9.61A2.39,2.39,0,1,0,14.39,12,2.42,2.42,0,0,0,12,9.61Z" />
            <path
                d="M0,0V24H24V0ZM19.06,14.75c-.36.65-.73,1.29-1.11,1.93A.74.74,0,0,1,17,17l-.27-.08c-1.3-.42-1.3-.42-2.42.29a.56.56,0,0,0-.2.33c-.11.43-.19.86-.28,1.3a.7.7,0,0,1-.7.65c-.75,0-1.5,0-2.26,0a.71.71,0,0,1-.7-.66l0-.18a1.94,1.94,0,0,0-1.39-2,.94.94,0,0,0-.52-.06c-.42.1-.81.25-1.22.38a.75.75,0,0,1-1-.3q-.57-.95-1.11-1.92a.69.69,0,0,1,.2-.9l.22-.18c1-.9,1-.9,1-2.22a.68.68,0,0,0-.19-.4c-.31-.31-.64-.61-1-.9A.72.72,0,0,1,5,9.2c.35-.63.7-1.27,1.1-1.88A2.24,2.24,0,0,1,6.6,6.9c.55.17,1,.3,1.48.47a1,1,0,0,0,.79-.09,2,2,0,0,0,1.27-1.93A.81.81,0,0,1,11,4.5c.71,0,1.41,0,2.12,0a.69.69,0,0,1,.68.62c0,.12,0,.25.07.37.28,1.27.28,1.27,1.43,1.87a.66.66,0,0,0,.44,0c.41-.11.81-.25,1.21-.38a.74.74,0,0,1,1,.28,21.06,21.06,0,0,1,1.12,2,1,1,0,0,1-.13.73c-.08.16-.27.26-.41.39-.95.86-1,.86-.86,2.14a.67.67,0,0,0,.22.39c.31.31.64.6,1,.89A.67.67,0,0,1,19.06,14.75Z" />
        </g>
    </g>
</svg>