<svg xmlns="http://www.w3.org/2000/svg" viewBox="0 0 50 43.24"><defs><style>.cls-1{fill:#419873;}</style></defs><g id="Layer_2" data-name="Layer 2"><g id="Layer_1-2" data-name="Layer 1"><path class="cls-1" d="M46.67,43.24H33.38V39.92H30.06V23.3h3.32V20H46.67V23.3H50V39.92H46.67Zm-3.32-3.32V23.3H36.71V39.92Z"/><path class="cls-1" d="M0,6.65V0H6.65V6.65h6.64V0h6.65V6.65H16.61V10H13.29v3.32h3.32v3.32h3.33v6.65H13.29V16.61H6.65v6.65H0V16.61H3.32V13.29H6.65V10H3.32V6.65Z"/><path class="cls-1" d="M16.72,30H20V23.3h3.32V16.66h3.33V10H30V3.37h6.65V10H33.33v6.65H30V23.3H26.69V30H23.36V36.6H16.72Z"/></g></g></svg>