<svg xmlns="http://www.w3.org/2000/svg" viewBox="0 0 50 36.16"><defs><style>.cls-1{fill:#419873;}</style></defs><g id="Layer_2" data-name="Layer 2"><g id="Layer_1-2" data-name="Layer 1"><g id="Layer_2-2" data-name="Layer 2"><g id="Layer_1-2-2" data-name="Layer 1-2"><path class="cls-1" d="M2.22,24V10.43a7.87,7.87,0,0,1,7.87-7.87H37.63a7.92,7.92,0,0,1,1.61.16A7.16,7.16,0,0,0,33.62,0H7.15A7.15,7.15,0,0,0,0,7.15V20A7.12,7.12,0,0,0,2.32,25.3,7.8,7.8,0,0,1,2.22,24Z"/><path class="cls-1" d="M6.29,28.86V14.56a7.88,7.88,0,0,1,7.87-7.87H42.78a7.73,7.73,0,0,1,1,.06,7.13,7.13,0,0,0-6-3.33H10.16A7.16,7.16,0,0,0,3,10.57V24.16a7.16,7.16,0,0,0,3.42,6.1A8.19,8.19,0,0,1,6.29,28.86Z"/><path class="cls-1" d="M42.85,7.55H14.23A7.15,7.15,0,0,0,7.08,14.7V29a7.15,7.15,0,0,0,7.15,7.15H42.85A7.15,7.15,0,0,0,50,29h0V14.7A7.15,7.15,0,0,0,42.85,7.55ZM35.7,21.85V28c0,.47-.62.77-1.12.53l-6.41-3-6.42-3.06a.57.57,0,0,1,0-1.06l6.42-3.05,6.41-3.06c.5-.23,1.12.06,1.12.53Z"/></g></g></g></g></svg>