<svg xmlns="http://www.w3.org/2000/svg" viewBox="0 0 22.71 24"><defs><style>.cls-1{fill:#fff;}</style></defs><g id="Layer_2" data-name="Layer 2"><g id="Layer_1-2" data-name="Layer 1"><path class="cls-1" d="M22.55,6.68c.05-.87.1-1.74.16-2.61a.14.14,0,0,0-.1-.14l-1.89-.86-.09,0A.3.3,0,0,0,20.47,3h0c-.89-.44-1.8-.85-2.7-1.25l-.12-.07L14.9.37,14.11,0a.17.17,0,0,0,0,.16l1.1,2.37,1,2a.35.35,0,0,0,.08.16h0l.16.36h0c.1.21.19.42.28.62l1.05,2.22h0a.84.84,0,0,0,0,.17c.26.54.51,1.08.76,1.62.41.86.81,1.71,1.21,2.57h0c.16.38.33.76.52,1.13,0,0,0,.05,0,.07l1.43,3.06.12.26h0l.14-2.41v0a2.1,2.1,0,0,0,0-.5h0V13.7a2.32,2.32,0,0,0,0-.53h0a.52.52,0,0,0,0-.11c0-.21,0-.41,0-.62h0a1.82,1.82,0,0,0,0-.52h0l.09-1.45h0c.07-.59.1-1.19.12-1.78,0,0,0,0,0,0a1.93,1.93,0,0,0,0-.48h0a.26.26,0,0,0,0-.15,2.51,2.51,0,0,0,0-.61h0a2.72,2.72,0,0,0,0-.64,0,0,0,0,0,0,0h0S22.55,6.69,22.55,6.68ZM16.8,5.31l0,0S16.8,5.29,16.8,5.31Zm-.37-.22h0Zm5.06,7.21h0l.09-.11A.09.09,0,0,1,21.49,12.3Z"/><path class="cls-1" d="M8.45,13.94h5.89c.1,0,.13,0,.08-.13l-.21-.52-1.29-3.11h0l0,0a1.86,1.86,0,0,0-.17-.41h0a.13.13,0,0,0-.05-.12.5.5,0,0,0-.08-.2c-.34-.85-.69-1.7-1-2.55-.06-.15-.12-.3-.2-.48l-.29.69c-.23.58-.46,1.15-.7,1.73h0l-.82,2c0,.09-.07.17-.11.26-.37.9-.74,1.81-1.12,2.71C8.25,13.91,8.29,14,8.45,13.94Zm1.94-5.13h0Z"/><path class="cls-1" d="M5.45,6.86h0c.06,0,.07-.09.1-.15.3-.67.61-1.34.92-2l.06-.1c.69-1.5,1.39-3,2.08-4.48,0,0,.05-.07,0-.12l-6,2.82h0l-.19.07-2.1,1C0,4,0,4,0,4.33H0c0,.67.08,1.32.11,2A3,3,0,0,0,.21,7h0a2.26,2.26,0,0,0,0,.58h0a.26.26,0,0,0,0,.15l0,0,0,0a2,2,0,0,0,0,.49v.07h0a2,2,0,0,0,0,.49.07.07,0,0,1,0,.05v.12C.38,10,.43,11,.51,12a3.6,3.6,0,0,0,.06.73,2.73,2.73,0,0,0,0,.57h0v.15a3,3,0,0,0,0,.52.11.11,0,0,0,0,0L.81,16.8h0l1.9-4.12h0c.08-.16.16-.32.23-.48.4-.85.78-1.7,1.17-2.55S4.91,8.1,5.25,7.31l.2-.45ZM.59,12.27s0,.06,0,.09h0ZM.37,8.58v0ZM.56,9h0ZM.08,4.54h0l0,0Z"/><path class="cls-1" d="M16.13,17.82c0-.06-.06-.11-.14-.11H6.82c-.08,0-.18,0-.21.09h0c-.27.61-.53,1.23-.76,1.86h0c-.1.23-.21.45-.3.68s-.18.25.16.46l.21.12,1.67.93h0a3.43,3.43,0,0,0,.64.37h0l.5.3,2,1.15h0a4.27,4.27,0,0,0,.51.3.14.14,0,0,0,.17,0l1.43-.83h0c.48-.25,1-.52,1.42-.81a9.76,9.76,0,0,0,1-.61s0,0,0,0l1.83-1c.08-.05.07-.1,0-.17C16.87,19.62,16.5,18.72,16.13,17.82Zm-5.92,2.63s0,0,0,0h0Zm1.7,3.14,0,0ZM12,17.77Zm-.84,0Z"/></g></g></svg>