<svg xmlns="http://www.w3.org/2000/svg" viewBox="0 0 21.13 23.97"><defs><style>.cls-1{fill:#fff;}</style></defs><g id="Layer_2" data-name="Layer 2"><g id="Layer_1-2" data-name="Layer 1"><path class="cls-1" d="M20.75,0H.38C.07,0,0,.06,0,.39.27,3.3.52,6.2.78,9.11q.54,6.08,1.09,12.14a.44.44,0,0,0,.37.46c2.68.73,5.35,1.48,8,2.22a1,1,0,0,0,.58,0c.79-.23,1.59-.44,2.38-.66l5.62-1.56c.18-.05.38-.05.4-.34.11-1.44.25-2.88.38-4.32.21-2.44.42-4.87.64-7.31q.42-4.67.85-9.35C21.15.07,21.06,0,20.75,0ZM4.13,7Zm1.3,11c-.22-.06-.32-.13-.34-.36-.1-1.19-.2-2.38-.31-3.57,0-.21,0-.32.26-.31H7.13c.23,0,.29.08.31.3,0,.51.08,1,.13,1.53,0,.13,0,.27.19.32.85.21,1.69.49,2.56.66h0c.14.13.3,0,.45.05h0a.68.68,0,0,0,.4,0L13,16.12c.5-.13.57-.22.64-.73.1-.8.1-1.61.22-2.41a.63.63,0,0,0-.1-.53H10.57l-4,0H5c-.22,0-.35,0-.37-.29Q4.52,11.07,4.41,10c0-.14,0-.19.14-.19l.41,0h8.61l.37,0h0c.1,0,.1-.1.15-.15a.26.26,0,0,0,.09-.16c.09-.7.16-1.41.18-2.12,0-.11,0-.21-.12-.25H4.48A.53.53,0,0,1,4.13,7L3.91,4.45a1,1,0,0,0,.62.1c2.07,0,4.14,0,6.22,0h5.76c.53,0,.56,0,.51.55-.14,1.32-.22,2.64-.35,4-.16,1.51-.27,3-.41,4.54-.12,1.24-.24,2.48-.33,3.73,0,.48,0,.51-.5.64-1.46.41-2.92.79-4.37,1.21-.18.1-.41.09-.57.25h0C8.8,19,7.12,18.47,5.43,18Z"/></g></g></svg>