<svg xmlns="http://www.w3.org/2000/svg" viewBox="0 0 21.18 24"><defs><style>.cls-1{fill:#fff;}</style></defs><g id="Layer_2" data-name="Layer 2"><g id="Layer_1-2" data-name="Layer 1"><path class="cls-1" d="M.06,12c0-1.65,0-3.3,0-5A1.72,1.72,0,0,1,1,5.38L9.71.28a1.73,1.73,0,0,1,1.88,0c2.88,1.66,5.77,3.33,8.66,5a1.72,1.72,0,0,1,.93,1.59q0,5.18-.06,10.35a1.54,1.54,0,0,1-.82,1.35l-9,5.23a1.61,1.61,0,0,1-1.68,0L.84,18.65A1.7,1.7,0,0,1,0,17C0,15.34,0,13.65,0,12Zm10,.46a16.57,16.57,0,0,0-.51-2.29,3,3,0,0,0-2.9-2.07,3.19,3.19,0,0,0-3.22,2A5.54,5.54,0,0,0,3,12.72a3.44,3.44,0,0,0,4.05,3.54,3.07,3.07,0,0,0,2.76-2.71H9c-.65,1.64-1.73,2.28-3.16,1.89a2.81,2.81,0,0,1-1.83-3ZM17.49,16l-3-4,2.76-3.68c-1.08-.11-1.08-.11-1.62.63L14,11.25c-.6-.8-1.22-1.52-1.72-2.32a1.31,1.31,0,0,0-1.62-.58L13.36,12l-2.95,4a1.31,1.31,0,0,0,1.64-.64c.55-.88,1.21-1.68,1.86-2.57.66.88,1.32,1.68,1.89,2.55A1.36,1.36,0,0,0,17.49,16Z"/><path class="cls-1" d="M4,11.63A2.64,2.64,0,0,1,6.72,8.86a2.54,2.54,0,0,1,2.21,2.77Z"/></g></g></svg>