<svg xmlns="http://www.w3.org/2000/svg" viewBox="0 0 16.12 24"><defs><style>.cls-1{fill:#fff;}</style></defs><g id="Layer_2" data-name="Layer 2"><g id="Layer_1-2" data-name="Layer 1"><path class="cls-1" d="M12.32,7.89A3.81,3.81,0,0,0,8.54,11.3V9.93c0-.43,0-.6,0-2a39.66,39.66,0,0,0,4.28-.19c2-.59,3.17-1.83,3.29-3.55A3.89,3.89,0,0,0,12.82,0L8.54.05h0L3.74,0l-.1,0A4.33,4.33,0,0,0,0,4.57a4,4,0,0,0,1.81,3.1A4.13,4.13,0,0,0,0,11.45a4.34,4.34,0,0,0,3.45,3.87,2.47,2.47,0,0,0,.78.13H3.71c-.39.13-.8.22-1.18.38a4.25,4.25,0,0,0-2.36,5A4.34,4.34,0,0,0,4.58,24a4.25,4.25,0,0,0,3.94-4c0-1.47,0-2.93,0-4.4v-1c0-.52,0-1.3,0-2.06,0-.18,0-.35,0-.52a3.8,3.8,0,1,0,3.78-4.12Zm-8.38-6,2.77,0v1.2c0,.77,0,1.49,0,1.7s0,.54,0,.84,0,.84,0,1.23c-1.06,0-2.26-.07-2.58-.11h0C2.68,6.31,1.93,5.54,1.85,4.45A2.46,2.46,0,0,1,3.94,1.84ZM4.08,13.6c-1.41-.41-2.16-1.17-2.24-2.27A2.47,2.47,0,0,1,3.93,8.72l2.76,0c0,.37,0,.79,0,1.21,0,.76,0,1.49,0,1.69s0,.55,0,.84,0,.84,0,1.23c-1.06,0-2.27-.07-2.58-.11Z"/></g></g></svg>