<svg xmlns="http://www.w3.org/2000/svg" viewBox="0 0 24 24"><defs><style>.cls-1{fill:#fff;}</style></defs><g id="Layer_2" data-name="Layer 2"><g id="Layer_1-2" data-name="Layer 1"><path class="cls-1" d="M0,12.34v-.77a2.16,2.16,0,0,1,.75-1.35c2.05-2,4.08-4.08,6.12-6.12l.34-.32c.37-.35.51-.35.87,0,.78.71,1.5,1.49,2.26,2.22a.65.65,0,0,1,.19.62,1.72,1.72,0,0,0,.84,1.94c.26.16.23.41.23.65,0,1.3,0,2.6,0,3.9,0,.61,0,1.23,0,1.84a.93.93,0,0,1-.43.86,1.59,1.59,0,1,0,2.36,1.95A1.5,1.5,0,0,0,13.18,16a1.54,1.54,0,0,1-.54-1.39c0-1.61,0-3.23,0-4.84,0-.17,0-.34,0-.51s0-.29.2-.36a.34.34,0,0,1,.38.11c.73.7,1.45,1.42,2.15,2.15.18.2.13.42.11.65a1.57,1.57,0,0,0,.68,1.6,1.48,1.48,0,0,0,1.9-.05,1.57,1.57,0,0,0,.53-1.73,1.43,1.43,0,0,0-1.51-1.08,1.54,1.54,0,0,1-1.36-.61c-.61-.64-1.25-1.25-1.87-1.88a.71.71,0,0,1-.22-.65A1.59,1.59,0,0,0,11.78,5.5a.8.8,0,0,1-.66-.22C10.35,4.51,9.57,3.75,8.82,3c-.31-.33-.31-.47,0-.8C9.41,1.55,10,1,10.63.35A1.71,1.71,0,0,1,11.49,0H12.6a1.93,1.93,0,0,1,1.09.67q4.83,4.85,9.67,9.66A1.9,1.9,0,0,1,24,11.49v1a2.14,2.14,0,0,1-.65,1.18q-4.79,4.76-9.54,9.53a2.21,2.21,0,0,1-1.47.78h-.6a2.48,2.48,0,0,1-1.53-.92c-2-1.84-3.81-3.78-5.72-5.66-1.34-1.32-2.66-2.67-4-4A2,2,0,0,1,0,12.34Z"/></g></g></svg>