<svg xmlns="http://www.w3.org/2000/svg" viewBox="0 0 21.11 24"><defs><style>.cls-1{fill:#fff;}</style></defs><g id="Layer_2" data-name="Layer 2"><g id="Layer_1-2" data-name="Layer 1"><path class="cls-1" d="M20.71,0H.49C0,0,0,0,0,.54c.12,1.32.25,2.63.36,4C.6,7,.81,9.43,1,11.9c.28,3.12.57,6.23.84,9.34a.46.46,0,0,0,.39.49c2.68.73,5.35,1.48,8,2.23a.89.89,0,0,0,.51,0l8.1-2.25a.4.4,0,0,0,.34-.42c.05-.87.13-1.74.21-2.6l1-11.18c.21-2.35.4-4.71.63-7.07C21.13.09,21.07,0,20.71,0ZM5.31,18c-.16,0-.19-.13-.2-.27C5,16.49,4.88,15.26,4.77,14c0-.19,0-.27.24-.27H7.18c.2,0,.25.08.26.26,0,.54.1,1.07.14,1.6,0,.13,0,.25.17.28.85.21,1.67.5,2.53.66.14.13.3.07.45.05a3,3,0,0,1,.66-.14h0a8.64,8.64,0,0,0,2-.49.44.44,0,0,0,.26-.46c0-.3.06-.6.06-.89a4.71,4.71,0,0,0,0-1.45h0c0-.14,0-.28,0-.41s0-.33-.3-.33H4.66a19.65,19.65,0,0,1-.2-2c-.19-2-.36-3.94-.54-5.91h0a.93.93,0,0,0,.44,0c4.07,0,8.13,0,12.2,0,.5,0,.57.08.48.57a9.88,9.88,0,0,0-.11,1.22c-.05.62-.1.69-.71.69H11.1a.78.78,0,0,0-.52.09.61.61,0,0,0-.35,0h-3c-.11,0-.23,0-.32,0h0a.14.14,0,0,0-.08.15C6.88,8,7,8.74,7,9.49c0,.08,0,.23.14.26a25.59,25.59,0,0,0,2.63.05,2.11,2.11,0,0,0,.79-.05.76.76,0,0,0,.53.1h5.27c.15,0,.24.09.22.24-.12.81-.09,1.64-.24,2.45-.07,1-.18,2-.26,3-.05.6-.11,1.21-.17,1.82a.53.53,0,0,1-.43.53c-1.66.44-3.3.93-5,1.37a.26.26,0,0,0-.17.09h0C8.69,18.87,7,18.45,5.31,18Z"/></g></g></svg>