<svg xmlns="http://www.w3.org/2000/svg" viewBox="0 0 21.03 24"><defs><style>.cls-1{fill:#fff;}</style></defs><g id="Layer_2" data-name="Layer 2"><g id="Layer_1-2" data-name="Layer 1"><path class="cls-1" d="M19.55,0,1,0C.22-.06-.07.1,0,1,.65,7.69,1.24,14.42,1.82,21.15c0,.45.24.59.64.7q3.75,1,7.48,2.07a2.37,2.37,0,0,0,1.32,0c2.41-.67,4.81-1.34,7.23-2a.86.86,0,0,0,.77-.88c.55-6.47,1.15-12.93,1.72-19.4C21.11.09,21.08.09,19.55,0ZM9.25,19.17c-1.22-.38-2.46-.69-3.7-1-.38-.1-.61-.26-.63-.71Q4.85,16,4.68,14.5c0-.54.11-.79.68-.71a1.88,1.88,0,0,0,.53,0c.75-.12,1,.2,1,.92,0,.47-.22,1.31.58,1.24.65,0,.26-.78.25-1.18-.07-3.15-.19-6.3-.33-9.45,0-.65.11-.88.81-.86,1.67,0,1.67,0,1.67,1.69V12h0c0,2.23,0,4.46,0,6.7C9.88,19.14,9.81,19.34,9.25,19.17ZM17,5.14c-.11,2-.09,2-2.06,2a4.86,4.86,0,0,1-.54,0c-.63-.09-.79.18-.79.8,0,1.89,0,1.94,1.91,1.88.88,0,1,.27,1,1.06-.23,2.19-.4,4.38-.58,6.57a.64.64,0,0,1-.56.67c-1.27.33-2.53.67-3.78,1.05-.5.15-.66,0-.6-.49a1.08,1.08,0,0,0,0-.18c0-1.9,0-1.92,1.79-2.4.49-.13.72-.35.67-.85a3.4,3.4,0,0,1,0-.45c0-.71.46-1.57.07-2.08s-1.33-.17-2-.21c-.45,0-.54-.23-.53-.62,0-1.16,0-2.32,0-3.48s0-2.14,0-3.21c0-.53.13-.75.7-.74,1.58,0,3.16,0,4.73,0C17,4.45,17.06,4.65,17,5.14Z"/></g></g></svg>