<svg xmlns="http://www.w3.org/2000/svg" viewBox="0 0 21.26 24"><defs><style>.cls-1{fill:#fff;}</style></defs><g id="Layer_2" data-name="Layer 2"><g id="Layer_1-2" data-name="Layer 1"><path class="cls-1" d="M21.26,6.69V6.56a1.27,1.27,0,0,0-.66-1.09c-1-.54-1.9-1.09-2.85-1.64l-2.7-1.56L12,.49A2.48,2.48,0,0,0,10.84,0h-.45a1.74,1.74,0,0,0-.5.12L8,1.23,4.3,3.36c-1.21.7-2.43,1.39-3.63,2.1A1.22,1.22,0,0,0,0,6.55V17.49a1.08,1.08,0,0,0,.57,1c.78.48,1.58.92,2.37,1.38L6,21.64,9.24,23.5a2.58,2.58,0,0,0,1.15.5h.45a1.62,1.62,0,0,0,.71-.24l4.89-2.83,4-2.29a2.25,2.25,0,0,0,.58-.48,1.32,1.32,0,0,0,.27-.88ZM5,14.09c0,.2,0,.23-.23.13l-.85-.49a.29.29,0,0,1-.17-.29c0-.35,0-.71,0-1.06a.29.29,0,0,0-.17-.29h0c-.54-.31-.35-.3-.91,0a.26.26,0,0,0-.16.26c0,.35,0,.7,0,1.05a.33.33,0,0,1-.19.34c-.29.15-.56.31-.84.47s-.22.06-.22-.13V11.66a.3.3,0,0,1,.17-.29L3,10.47a.27.27,0,0,1,.31,0l1.53.88a.31.31,0,0,1,.18.31C5,12.48,5,13.28,5,14.09Zm4.88-.36-1.6.93a.26.26,0,0,1-.27,0l-1.61-.93a.27.27,0,0,1-.14-.25V11.67a.29.29,0,0,1,.16-.28L8,10.49a.29.29,0,0,1,.32,0l1.58.91a.26.26,0,0,1,.15.24c0,.62,0,1.23,0,1.85A.25.25,0,0,1,9.85,13.73Zm5,.08c-.5.28-1,.57-1.48.86a.38.38,0,0,1-.41,0l-1.51-.88a.28.28,0,0,1-.16-.28v-1.8a.27.27,0,0,1,.16-.28q.78-.43,1.56-.9a.31.31,0,0,1,.32,0,2.69,2.69,0,0,0,.29.16c.14.08.17.06.17-.1V8.22c0-.22.06-.25.24-.14s.55.31.83.45a.32.32,0,0,1,.19.31c0,.78,0,1.55,0,2.33s0,1.54,0,2.31A.34.34,0,0,1,14.82,13.81Zm4.73-1.35-.55.33c-.16.1-.22.07-.23-.12s.06-.33,0-.44a2.37,2.37,0,0,0-.53-.33.12.12,0,0,0-.13,0l0,0c-.54.3-.54.3-.5.92,0,.1,0,.14.13.18l1.5.86c.06,0,.14.06.14.15s-.08.1-.14.13l-.86.47a.3.3,0,0,1-.34,0l-1.55-.89a.26.26,0,0,1-.15-.25c0-.3,0-.61,0-.91s0-.59,0-.89a.31.31,0,0,1,.17-.3L18,10.5a.27.27,0,0,1,.3,0l1.57.9a.26.26,0,0,1,.14.24C20,12.31,20.09,12.12,19.55,12.46Zm-1.05.11c0,.07,0,.16-.05.21s-.2.17-.32.17-.22-.1-.31-.17,0-.16,0-.24.2-.39.35-.37a.81.81,0,0,1,.32.16C18.53,12.39,18.48,12.49,18.5,12.57Z"/><path class="cls-1" d="M13.75,12.66c.08.23-.08.35-.29.48a.54.54,0,0,1-.67,0,.55.55,0,0,1-.3-.54.57.57,0,0,1,.31-.55.51.51,0,0,1,.65,0C13.81,12.31,13.74,12.17,13.75,12.66Z"/><path class="cls-1" d="M8.72,12.6c.1.28-.06.41-.28.55a.53.53,0,0,1-.65,0,.56.56,0,0,1-.32-.54.57.57,0,0,1,.32-.56.54.54,0,0,1,.64,0C8.65,12.19,8.82,12.31,8.72,12.6Z"/></g></g></svg>