<svg xmlns="http://www.w3.org/2000/svg" viewBox="0 0 27.01 24"><defs><style>.cls-1{fill:#fff;}</style></defs><g id="Layer_2" data-name="Layer 2"><g id="Layer_1-2" data-name="Layer 1"><path class="cls-1" d="M5.66,16.64A26.36,26.36,0,0,1,3,15.47,10,10,0,0,1,.82,13.81a2.48,2.48,0,0,1,0-3.72A8.56,8.56,0,0,1,4.25,8c.45-.18.92-.33,1.36-.49a28.64,28.64,0,0,1-.33-3A9.12,9.12,0,0,1,5.6,1.84,2.43,2.43,0,0,1,8.71.11,8.9,8.9,0,0,1,12.37,2c.39.3.76.63,1.08.9,1-.69,1.86-1.4,2.83-2A6.62,6.62,0,0,1,18.1.13,2.51,2.51,0,0,1,21.44,2a9,9,0,0,1,.16,4.18c-.21,1.33-.19,1.25,1,1.83a14.6,14.6,0,0,1,3.18,1.85c1.6,1.31,1.55,2.89.05,4.33a10.22,10.22,0,0,1-3.7,2.09l-.65.23c.09,1.32.21,2.58.24,3.85a5.47,5.47,0,0,1-.3,1.69,2.58,2.58,0,0,1-3.4,1.86,9.59,9.59,0,0,1-3.8-2.18l-.69-.6c-.53.43-1,.86-1.55,1.25A7.19,7.19,0,0,1,8.32,24a2.44,2.44,0,0,1-2.76-1.87,9.15,9.15,0,0,1-.08-4.56C5.53,17.24,5.59,17,5.66,16.64Zm7.8-.3v0c.68,0,1.37,0,2,0a1,1,0,0,0,.7-.39c.7-1.15,1.37-2.31,2-3.49a1,1,0,0,0,0-.81c-.63-1.16-1.32-2.29-2-3.44a.9.9,0,0,0-.9-.48c-.72,0-1.45,0-2.17,0-2.22,0-2.23,0-3.35,1.95-.44.77-1.17,1.58-1.16,2.37s.75,1.63,1.17,2.44c.08.15.19.28.26.44a2.13,2.13,0,0,0,2.57,1.49A4.93,4.93,0,0,1,13.46,16.34Zm-7.53-.87c.45-1.14.89-2.23,1.32-3.31a.51.51,0,0,0,0-.3L6,8.6a9.57,9.57,0,0,0-4.13,2.11,1.52,1.52,0,0,0-.06,2.5A9.36,9.36,0,0,0,5.93,15.47Zm.84,1.44a9,9,0,0,0-.15,4.79,1.42,1.42,0,0,0,1.91,1.11,9,9,0,0,0,4.19-2.52c-.74-.94-1.43-1.82-2.14-2.7a.78.78,0,0,0-.42-.24ZM12.69,3.75A9.31,9.31,0,0,0,8.42,1.2a1.33,1.33,0,0,0-1.75,1,8.82,8.82,0,0,0,.12,5C7.94,7,9,6.85,10.09,6.68a.78.78,0,0,0,.47-.25C11.27,5.55,12,4.66,12.69,3.75Zm1.65,0,2.1,2.67a.78.78,0,0,0,.41.26l3.39.49a9.52,9.52,0,0,0,.17-4.71,1.5,1.5,0,0,0-2.17-1.21A9.93,9.93,0,0,0,14.34,3.75Zm0,16.54a9,9,0,0,0,4.16,2.54A1.31,1.31,0,0,0,20.26,22a8.29,8.29,0,0,0,0-5.12c-1.18.16-2.27.3-3.36.47a.91.91,0,0,0-.52.31C15.74,18.49,15.09,19.36,14.38,20.29ZM21.07,8.63c-.44,1.08-.85,2.09-1.25,3.1a.69.69,0,0,0,0,.42c.44,1.08.89,2.15,1.34,3.22A9.89,9.89,0,0,0,25,13.49c1.19-1.06,1.21-2,0-3A9.88,9.88,0,0,0,21.07,8.63Zm-9.18,8.86,1.66,2,1.59-2Zm3.24-11L13.51,4.57,11.9,6.51Zm3.95,6.79-1.64,2.86L20,15.72Zm-9.5,2.87L8,13.35l-.89,2.43ZM7.07,8.29,8,10.66l1.61-2.8Zm10.38-.43,1.62,2.81L20,8.31Z"/><path class="cls-1" d="M15.89,12a2.39,2.39,0,1,1-4.78,0,2.39,2.39,0,0,1,4.78,0Z"/></g></g></svg>