<svg xmlns="http://www.w3.org/2000/svg" viewBox="0 0 32.04 24"><defs><style>.cls-1{fill:#fff;}</style></defs><g id="Layer_2" data-name="Layer 2"><g id="Layer_1-2" data-name="Layer 1"><path class="cls-1" d="M32,17.06a3.22,3.22,0,0,0-1.2-2.19,5.14,5.14,0,0,0-4.25-1,13.31,13.31,0,0,0-1.71.5c-.1,0-.19.1-.26,0a4.55,4.55,0,0,1-.69-2.18,5.9,5.9,0,0,1,.33-1.66c.09-.29,0-.41-.28-.48a2.83,2.83,0,0,0-1.26.06.48.48,0,0,0-.38.37A5.54,5.54,0,0,1,22,11.67c-.56,1.09-1.16,2.17-1.75,3.25l-.09.09a3.52,3.52,0,0,1-.47-2.54,8.39,8.39,0,0,1,.26-1c.09-.32,0-.51-.33-.51a7.75,7.75,0,0,0-1.27.09c-.17,0-.26.14-.3.31a7.5,7.5,0,0,1-.3.95c-.48,1.12-1,2.24-1.47,3.35-.42.93-.86,1.84-1.3,2.76a2.61,2.61,0,0,1-.19.27l-.07,0a2.21,2.21,0,0,1,0-.35,5.72,5.72,0,0,1,.12-.83c.22-.94.46-1.87.7-2.81.09-.37,0-.58-.38-.65a2.37,2.37,0,0,0-.64.05c0-.06,0-.17,0-.28a5.9,5.9,0,0,0,0-.84.85.85,0,0,0-.7-.8,2,2,0,0,0-.72,0,4.64,4.64,0,0,0-2.19,1.59,1.25,1.25,0,0,1-.33.32c-1,.54-1.93,1.06-2.9,1.6a.25.25,0,0,1-.32,0c-.62-.54-1.23-1.08-1.86-1.59a14.45,14.45,0,0,1-2.26-2,3.17,3.17,0,0,1-.65-3A5.18,5.18,0,0,1,3.8,6.92,14.2,14.2,0,0,1,7.16,4.37,16.12,16.12,0,0,1,14.49,1.9a6.13,6.13,0,0,1,2.65.38,1.81,1.81,0,0,1,1.34,1.87A3.26,3.26,0,0,1,18,5.75,7.76,7.76,0,0,1,14.43,9a10,10,0,0,1-3.16.93,4,4,0,0,1-3.64-1s-.13-.07-.15,0-.1.13-.08.17a2.56,2.56,0,0,0,.31.67,3.14,3.14,0,0,0,1.74,1.1,7.37,7.37,0,0,0,2.48.15,11.93,11.93,0,0,0,3.43-.82A8.14,8.14,0,0,0,19,7.23a5.49,5.49,0,0,0,1.14-3.64,3,3,0,0,0-.63-1.72A4.5,4.5,0,0,0,17.11.36,10.56,10.56,0,0,0,11.9.29,19.52,19.52,0,0,0,7.72,1.8,18.93,18.93,0,0,0,2.28,5.48a8.26,8.26,0,0,0-2.1,3.2,3.07,3.07,0,0,0,.06,2.23,6.22,6.22,0,0,0,1.83,2.38c1,.82,2.08,1.57,3.13,2.35l1.09.82L6,16.64c-.6.34-1.21.66-1.8,1a8.87,8.87,0,0,0-2.42,2,3.15,3.15,0,0,0-.59,3A1.62,1.62,0,0,0,2.5,23.93,4.79,4.79,0,0,0,6,23.2a5.34,5.34,0,0,0,2.1-6.36.2.2,0,0,1,.1-.3l1.48-.84a.39.39,0,0,1,.14,0s0,0,0,.06a.83.83,0,0,1,0,.15,7.48,7.48,0,0,0-.32,2.49,4.44,4.44,0,0,0,.69,2.17,1.08,1.08,0,0,0,1.21.52,1.29,1.29,0,0,0,.89-.79c.33-.65.63-1.32.94-2,0,0,.05-.09.08-.14,0,.22,0,.42,0,.62a6.27,6.27,0,0,0,.17,1.37.69.69,0,0,0,1.16.31,3.37,3.37,0,0,0,.75-.85,43.23,43.23,0,0,0,2.53-5.16l.31-.73c0,.05.07.07.07.1a9.25,9.25,0,0,0,.89,2.54.32.32,0,0,1-.05.28c-.48.62-1,1.23-1.47,1.85-.22.28-.46.56-.66.87a.51.51,0,0,0,.25.8,1.91,1.91,0,0,0,.48.06,4.43,4.43,0,0,0,2-.63,2.25,2.25,0,0,0,1.21-1.67,3.07,3.07,0,0,0-.26-1.69.39.39,0,0,1,.05-.4c.42-.68.83-1.35,1.23-2,.2-.34.37-.69.57-1.07a.92.92,0,0,1,.07.13,7.54,7.54,0,0,0,.78,2.3c.08.14,0,.21-.08.29A6.06,6.06,0,0,0,22,16.89a2.69,2.69,0,0,0-.46,1.42.75.75,0,0,0,1,.79,4.34,4.34,0,0,0,2.11-1.22,2.16,2.16,0,0,0,.58-1.12,2.46,2.46,0,0,0-.17-1.23c-.09-.23,0-.3.2-.38A6.35,6.35,0,0,1,28.8,15a3.52,3.52,0,0,1,2,1.07,1.8,1.8,0,0,1-.36,3c-.06,0-.08.13-.13.2l.22,0,.14,0A2.19,2.19,0,0,0,32,17.06ZM7.15,18.93a4,4,0,0,1-2.87,3.24,2.15,2.15,0,0,1-.67,0A.67.67,0,0,1,3,21.54a2.55,2.55,0,0,1,.47-1.6,5.88,5.88,0,0,1,1.72-1.65c.55-.39,1.13-.74,1.7-1.1A.49.49,0,0,1,7,17.12,3.5,3.5,0,0,1,7.15,18.93Zm6.5-5.14c-.25.89-.51,1.78-.82,2.66-.23.68-.53,1.34-.82,2a2.46,2.46,0,0,1-.34.56c-.17.22-.36.2-.45-.07s-.17-.73-.25-1.1A6.46,6.46,0,0,1,12.44,14a2.43,2.43,0,0,1,.78-.56C13.54,13.27,13.74,13.45,13.65,13.79ZM18,19.19l1.6-1.88C19.73,18,18.69,19.26,18,19.19Zm5.64-1.73a3.76,3.76,0,0,1-.76.59.53.53,0,0,1-.19.05h-.07V18s0-.05,0-.07a.61.61,0,0,1,0-.14,9,9,0,0,1,.55-1.17,5.89,5.89,0,0,1,.64-.78l.08.05A1.61,1.61,0,0,1,23.65,17.46Z"/></g></g></svg>