<svg xmlns="http://www.w3.org/2000/svg" viewBox="0 0 39.58 24"><defs><style>.cls-1{fill:#fff;}</style></defs><g id="Layer_2" data-name="Layer 2"><g id="Layer_1-2" data-name="Layer 1"><path class="cls-1" d="M31.13,6.27c-.85-.7-1.62-1.49-2.44-2.21a9.81,9.81,0,0,0-1.82-1.65h0A9.21,9.21,0,0,0,21.27.14a.08.08,0,0,0-.09,0,6.88,6.88,0,0,0-2.75,0h0A8.81,8.81,0,0,0,10.21,6.8a1.58,1.58,0,0,0-.2,1c.18-.37.46-.47.5-.77h0a6.4,6.4,0,0,0,.5-.41,6,6,0,0,1,6.51-1.45h0a13.46,13.46,0,0,1,3.33,2.72A13.24,13.24,0,0,0,23.25,10h0a8.55,8.55,0,0,0,4.24,1.74h0c5.61,1.07,10.86-1.36,12.09-7.38C36.63,7.81,33.59,7.72,31.13,6.27Z"/><path class="cls-1" d="M27.24,18.39a6.12,6.12,0,0,1-4.37.67,8.93,8.93,0,0,1-3.05-1.89.17.17,0,0,1-.11.06l.11-.06a23.64,23.64,0,0,0-2.65-2.55h0a9.39,9.39,0,0,0-5.62-2.47h0l-.25,0a7.15,7.15,0,0,0-2.84,0h0A9,9,0,0,0,0,19.75C2.31,17,5,15.87,8.35,17.64l.3.23c1.19.92,2.14,2.09,3.29,3.06a9.42,9.42,0,0,0,3.59,2.3h0a7.1,7.1,0,0,0,2.79.63h0a9.64,9.64,0,0,0,3.17,0,8.83,8.83,0,0,0,7.62-5.8,6.33,6.33,0,0,0,.53-1.8A10.79,10.79,0,0,1,27.24,18.39Z"/></g></g></svg>