<svg xmlns="http://www.w3.org/2000/svg" viewBox="0 0 23.76 24"><defs><style>.cls-1{fill:#fff;}</style></defs><g id="Layer_2" data-name="Layer 2"><g id="Layer_1-2" data-name="Layer 1"><path class="cls-1" d="M.31,0,.59.07,23.28,6.6c.59.17.62.32.19.74L6.47,23.7a.6.6,0,0,1-.08.08c-.37.34-.54.29-.66-.19L5,20.82C4.32,17.9,3.59,15,2.87,12.05Q1.44,6.29,0,.51C0,.14,0,0,.31,0ZM6.19,23.22,10,19.58l-5-1.44ZM8.63,13.3l-1.23-5L3.67,11.87ZM3.3,11.48,7,7.89l-5-1.42Zm11.61,3.35,3.73-3.59-5-1.42Zm-5.48-1.3,5,1.43-1.24-5ZM1.86,5.65,5.57,2.07.62.64ZM23,7.08,18,5.65l1.24,5ZM13.46,8.92l3.66-3.53L12.24,4Zm-.67.63L7.92,8.14l1.21,4.93ZM5.17,17.64,10.05,19,8.83,14.12ZM2.29,6l4.88,1.4L6,2.45ZM18.71,10.7,17.5,5.78,13.84,9.3ZM3.52,12.39l1.22,4.93,3.65-3.53Zm3-10.06L7.69,7.25l3.65-3.52Zm7.76,13.15-4.86-1.4L10.59,19ZM8.07,7.63,12.92,9l-1.2-4.9Z"/></g></g></svg>