<svg xmlns="http://www.w3.org/2000/svg" viewBox="0 0 24 24"><defs><style>.cls-1{fill:#fff;}</style></defs><g id="Layer_2" data-name="Layer 2"><g id="Layer_1-2" data-name="Layer 1"><path class="cls-1" d="M0,0H24V24H0ZM18.45,22.08c.23,0,.46,0,.68,0a4.1,4.1,0,0,0,1.56-.51,3,3,0,0,0,.85-.73,2.92,2.92,0,0,0,.59-1.7,3.34,3.34,0,0,0-.06-.78,3,3,0,0,0-.34-1,3.13,3.13,0,0,0-1-1.07,9.06,9.06,0,0,0-1-.54c-.29-.13-.59-.26-.87-.4l-1-.47a1.2,1.2,0,0,1-.4-.31,1,1,0,0,1-.23-.74A.88.88,0,0,1,18,13a1.52,1.52,0,0,1,.52,0,1.32,1.32,0,0,1,.48.13,1.39,1.39,0,0,1,.53.46l.21.28s.07,0,.12,0l.32-.2,1.23-.83c.1-.06.1-.08,0-.17l-.27-.39a3.56,3.56,0,0,0-.74-.71,2.91,2.91,0,0,0-1-.45,3.8,3.8,0,0,0-1-.09,5.54,5.54,0,0,0-.71,0,3.29,3.29,0,0,0-1.78.86,2.76,2.76,0,0,0-.61.9,2.63,2.63,0,0,0-.21,1,5.43,5.43,0,0,0,0,.57,2,2,0,0,0,.11.64,3.09,3.09,0,0,0,1.12,1.52,6.66,6.66,0,0,0,1.22.7l1.43.65a3,3,0,0,1,.57.35.87.87,0,0,1,.34.56,1.67,1.67,0,0,1,0,.32.89.89,0,0,1-.28.61,1.65,1.65,0,0,1-.85.38,2.91,2.91,0,0,1-.66,0,2.06,2.06,0,0,1-.87-.27,4.58,4.58,0,0,1-.43-.34,3.33,3.33,0,0,1-.56-.68c0-.05-.05,0-.1,0l-.64.37-1,.61c-.09.05-.09.06,0,.15l.22.35a4,4,0,0,0,.85.93,4.7,4.7,0,0,0,1.95.83A6,6,0,0,0,18.45,22.08Zm-7.81-4.57V13.18c0-.1,0-.1.11-.1h2.93c.08,0,.09,0,.09-.08,0-.61,0-1.22,0-1.82,0-.08,0-.09-.08-.09H5.38s-.08,0-.08.07v.58c0,.42,0,.83,0,1.25,0,.08,0,.09.09.09h3c.09,0,.09,0,.09.09v8.68c0,.1,0,.1.1.1h2c.09,0,.09,0,.09-.1Z"/></g></g></svg>