<svg xmlns="http://www.w3.org/2000/svg" viewBox="0 0 21.87 24"><defs><style>.cls-1{fill:#fff;}</style></defs><g id="Layer_2" data-name="Layer 2"><g id="Layer_1-2" data-name="Layer 1"><path class="cls-1" d="M14.31,5c-.09.34,0,.44.35.37L16.4,5a.46.46,0,0,1,.58.26.2.2,0,0,1-.11.25h0L15.5,8.25c-.05.1-.09.21-.14.32l-.59,1.1-.39.82a10.77,10.77,0,0,0-.65,1.32,12.38,12.38,0,0,0-.6,1.21l-.5.93h0c-.23.5-.52,1-.71,1.48L11.12,17c-.13.25-.25.5-.4.74s-.19.26-.37.18-.19-.23-.15-.39.09-.49.14-.74c.19-.82.37-1.64.49-2.48a1,1,0,0,0,0-.1l.07-.22c.07-.32.13-.65.2-1s-.08-.54-.45-.43l-.8.26-.32.07c-.27.07-.43-.08-.38-.35s.16-.75.23-1.12a2,2,0,0,0,0-.24l.21-.83c0-.21.08-.43.11-.64.07-.4,0-.52-.43-.44l-.29.09-1.54.34A.34.34,0,0,1,7,9.49a5.21,5.21,0,0,0,.06-1l.38-6.3c0-.1,0-.19,0-.29h0c0-.4,0-.42.4-.5l1.26-.25h0L14.93,0l.25,0c.27,0,.38.12.3.4a1.11,1.11,0,0,1-.12.44Z"/><path class="cls-1" d="M11,24a.78.78,0,0,1-.67-.44c-.2-.33-.39-.68-.57-1l-.25-.44c-.33-.53-.62-1-.87-1.54s-.61-1-.88-1.53l-.09-.14a10.11,10.11,0,0,1-.63-1.12c-.31-.49-.6-1-.87-1.53s-.52-.86-.78-1.36a12.21,12.21,0,0,1-.63-1.11,2.56,2.56,0,0,1-.35-.61,7.63,7.63,0,0,1-.54-.94L2.86,10.38c-.31-.48-.59-1-.82-1.44L.94,7,.7,6.61l-.6-1a.69.69,0,0,1,.06-.8A.73.73,0,0,1,.9,4.48l1.82.34.68.12L3.87,5c.77.13,1.56.26,2.34.44l.16,0h.1l1,.18-.17,2.8a6.18,6.18,0,0,1,0,.95c0,.08.07.11.22.07l1.1-.25L9,9.15l.08,0,.21-.06a.6.6,0,0,1,.56.08.6.6,0,0,1,.11.57c0,.16-.05.31-.08.46l0,.2-.21.82v.05a.62.62,0,0,1,0,.19l-.09.46c0,.22-.1.44-.14.66s0,.12,0,.13a.21.21,0,0,0,.14,0l.22,0,.09,0,.23-.08.56-.18a.56.56,0,0,1,.58.06.61.61,0,0,1,.12.59c-.05.23-.09.46-.14.69l-.07.32-.07.23,0,0v0c-.12.85-.31,1.7-.5,2.49a1.55,1.55,0,0,1,0,.21l-.09.52c0,.14,0,.16,0,.18s.06,0,.13-.1.19-.34.28-.51.08-.15.11-.22l.8-1.57a7,7,0,0,1,.42-.92,6,6,0,0,0,.28-.57h0l.5-.92a11.32,11.32,0,0,1,.6-1.21,10.82,10.82,0,0,1,.65-1.32l.39-.82.59-1.1a.36.36,0,0,1,0-.09,1.6,1.6,0,0,1,.1-.23c.35-.7.69-1.4,1-2.11l.34-.68h.09l0-.08h.08l2-.37.75-.14,1.16-.21h0a.76.76,0,0,1,.87,1.08c-.31.57-.64,1.14-1,1.7L20.42,8l-1.2,2.14a14.14,14.14,0,0,1-.77,1.37l-1,1.76-1.11,2-.09.14,0,0c-.29.58-.6,1.13-.92,1.65s-.71,1.34-1.16,2.07c-.58,1.09-1.2,2.18-1.79,3.24l-.67,1.18a.77.77,0,0,1-.66.45ZM.74,4.85A.35.35,0,0,0,.46,5a.31.31,0,0,0,0,.38l.59,1,.24.42L2.38,8.76c.23.44.5,1,.8,1.42h0l1.06,1.86a7.85,7.85,0,0,0,.53.92v0a2.37,2.37,0,0,0,.31.55h0v0a10.76,10.76,0,0,0,.63,1.1v0a13.92,13.92,0,0,0,.77,1.34h0a16.26,16.26,0,0,0,.86,1.53l0,0A7.14,7.14,0,0,0,8,18.69l.1.17c.26.52.56,1,.87,1.52H9c.25.49.54,1,.87,1.52h0l.24.44c.18.33.37.68.57,1a.43.43,0,0,0,.34.25.46.46,0,0,0,.34-.25L12,22.18c.6-1.05,1.22-2.14,1.79-3.23v0c.45-.72.85-1.47,1.15-2.05h0c.32-.52.62-1.07.91-1.64v0l0-.06A.41.41,0,0,0,16,15l1.11-2,1-1.78c.27-.43.52-.88.75-1.34h0l1.21-2.15.38-.68c.32-.55.64-1.13,1-1.69.1-.18.11-.33-.17-.5h0c-.07,0-.15,0-.29,0h0l-1.16.21L19,5.23l-2,.36L17,5.65l-.26.52c-.34.71-.69,1.41-1,2.11a2,2,0,0,0-.1.21s0,.07-.05.1v0L14.94,9.7l-.39.83a9.69,9.69,0,0,0-.64,1.29v0c-.22.4-.42.8-.59,1.19h0l-.5.93c-.09.2-.19.39-.29.58a8.67,8.67,0,0,0-.41.88v0L11.3,17a2.53,2.53,0,0,0-.12.23l-.29.52a.46.46,0,0,1-.62.26.49.49,0,0,1-.26-.61c0-.17.07-.34.1-.51a2.07,2.07,0,0,1,0-.22h0c.21-.9.38-1.67.49-2.46a.83.83,0,0,1,0-.12h0l.07-.21.05-.29c0-.23.09-.46.14-.68s0-.23,0-.23,0,0-.21,0l-.55.18L10,13h0l-.1,0-.21.05a.49.49,0,0,1-.49-.1A.47.47,0,0,1,9,12.48c0-.22.09-.45.13-.67s.07-.3.1-.45,0-.09,0-.15,0-.05,0-.08v0l.21-.82,0-.19c0-.15.05-.3.08-.45s0-.23,0-.23H9.54l-.16,0-.18.05-.09,0h0l-.45.1-1.09.24a.51.51,0,0,1-.69-.36V9.41a4.3,4.3,0,0,0,.05-.94h0L7.06,6l-.65-.11H6.33a.69.69,0,0,1-.2,0c-.77-.17-1.56-.3-2.32-.43l-.48-.08L2.65,5.2.83,4.86Z"/></g></g></svg>